<?xml version="1.0" encoding="UTF-8" standalone="no"?>
<!-- Created with Inkscape (http://www.inkscape.org/) -->

<svg
   id="svg3379"
   sodipodi:docname="bubble-dice.svg"
   viewBox="0 0 197.33558 135.74389"
   version="1.1"
   inkscape:version="1.2.2 (732a01da63, 2022-12-09)"
   width="197.33559"
   height="135.7439"
   xml:space="preserve"
   xmlns:inkscape="http://www.inkscape.org/namespaces/inkscape"
   xmlns:sodipodi="http://sodipodi.sourceforge.net/DTD/sodipodi-0.dtd"
   xmlns:xlink="http://www.w3.org/1999/xlink"
   xmlns="http://www.w3.org/2000/svg"
   xmlns:svg="http://www.w3.org/2000/svg"
   xmlns:rdf="http://www.w3.org/1999/02/22-rdf-syntax-ns#"
   xmlns:cc="http://creativecommons.org/ns#"
   xmlns:dc="http://purl.org/dc/elements/1.1/"><defs
     id="defs9"><linearGradient
       id="linearGradient4350"><stop
         id="stop4352"
         stop-color="#fff"
         offset="0" /><stop
         id="stop4360"
         stop-color="#494949"
         offset=".25754" /><stop
         id="stop4007"
         offset=".72581" /><stop
         id="stop4354"
         offset="1" /></linearGradient><linearGradient
       id="linearGradient4953"><stop
         id="stop4955"
         stop-color="#9d9d9d"
         offset="0" /><stop
         id="stop5919"
         stop-color="#e9e9e9"
         offset=".5" /><stop
         id="stop4957"
         stop-color="#fff"
         offset="1" /></linearGradient><radialGradient
       id="radialGradient4390"
       cx="288.74"
       xlink:href="#linearGradient4350"
       gradientUnits="userSpaceOnUse"
       cy="671.23"
       r="18.96"
       gradientTransform="matrix(1,0,0,0.50192,0,338.33)" /><radialGradient
       id="radialGradient4392"
       cx="250.82"
       xlink:href="#linearGradient4350"
       gradientUnits="userSpaceOnUse"
       cy="690.27"
       r="18.96"
       gradientTransform="matrix(1,0,0,0.50192,0,347.81)" /><radialGradient
       id="radialGradient4394"
       cx="335.56"
       xlink:href="#linearGradient4350"
       gradientUnits="userSpaceOnUse"
       cy="726.16"
       r="18.96"
       gradientTransform="matrix(1,0,0,0.50192,0,365.69)" /><radialGradient
       id="radialGradient4396"
       cx="367.93"
       xlink:href="#linearGradient4350"
       gradientUnits="userSpaceOnUse"
       cy="706.04"
       r="18.96"
       gradientTransform="matrix(1,0,0,0.50192,0,355.66)" /><radialGradient
       id="radialGradient4470"
       xlink:href="#linearGradient4350"
       gradientUnits="userSpaceOnUse"
       cy="223.36"
       cx="117.51"
       gradientTransform="matrix(1,0,0,1.1334,4,-23.802)"
       r="15.65" /><radialGradient
       id="radialGradient4472"
       xlink:href="#linearGradient4350"
       gradientUnits="userSpaceOnUse"
       cy="136.17"
       cx="134.07"
       gradientTransform="matrix(1,0,0,1.1334,4,-12.169)"
       r="15.65" /><radialGradient
       id="radialGradient4474"
       xlink:href="#linearGradient4350"
       gradientUnits="userSpaceOnUse"
       cy="179.77"
       cx="125.17"
       gradientTransform="matrix(1,0,0,1.1334,4,-17.985)"
       r="15.65" /><radialGradient
       id="radialGradient4476"
       xlink:href="#linearGradient4350"
       gradientUnits="userSpaceOnUse"
       cy="253.53"
       cx="182.2"
       gradientTransform="matrix(1,0,0,1.1334,4,-27.827)"
       r="15.65" /><radialGradient
       id="radialGradient4478"
       xlink:href="#linearGradient4350"
       gradientUnits="userSpaceOnUse"
       cy="166.34"
       cx="198.76"
       gradientTransform="matrix(1,0,0,1.1334,4,-16.194)"
       r="15.65" /><radialGradient
       id="radialGradient4480"
       xlink:href="#linearGradient4350"
       gradientUnits="userSpaceOnUse"
       cy="209.93"
       cx="189.87"
       gradientTransform="matrix(1,0,0,1.1334,4,-22.01)"
       r="15.65" /><radialGradient
       id="radialGradient4528"
       cx="283.46"
       xlink:href="#linearGradient4350"
       gradientUnits="userSpaceOnUse"
       cy="169.84"
       r="11.024"
       gradientTransform="matrix(1,0,0,1.6446,0,-109.48)" /><radialGradient
       id="radialGradient4530"
       cx="320.03"
       xlink:href="#linearGradient4350"
       gradientUnits="userSpaceOnUse"
       cy="148.32"
       r="11.024"
       gradientTransform="matrix(1,0,0,1.6446,0,-95.608)" /><radialGradient
       id="radialGradient4532"
       cx="304.19"
       xlink:href="#linearGradient4350"
       gradientUnits="userSpaceOnUse"
       cy="238.98"
       r="11.024"
       gradientTransform="matrix(1,0,0,1.6446,0,-154.04)" /><radialGradient
       id="radialGradient4534"
       cx="269.72"
       xlink:href="#linearGradient4350"
       gradientUnits="userSpaceOnUse"
       cy="255.25"
       r="11.024"
       gradientTransform="matrix(1,0,0,1.6446,0,-164.53)" /><radialGradient
       id="radialGradient4536"
       cx="294.87"
       xlink:href="#linearGradient4350"
       gradientUnits="userSpaceOnUse"
       cy="201.78"
       r="11.024"
       gradientTransform="matrix(1,0,0,1.6446,0,-130.07)" /><filter
       id="filter3917"
       color-interpolation-filters="sRGB"
       x="-0.017845502"
       y="-0.036634257"
       width="1.035691"
       height="1.0732685"><feGaussianBlur
         id="feGaussianBlur3919"
         stdDeviation="2.2149332" /></filter><filter
       id="filter3917-3"
       color-interpolation-filters="sRGB"
       x="-0.016501101"
       y="-0.05120843"
       width="1.0330022"
       height="1.1024169"><feGaussianBlur
         id="feGaussianBlur3919-4"
         stdDeviation="2.2149332" /></filter><linearGradient
       id="linearGradient5645"
       x1="343.84"
       xlink:href="#linearGradient4953"
       gradientUnits="userSpaceOnUse"
       y1="108.51"
       gradientTransform="matrix(1,0,0,-1,-4.5676,293.98)"
       x2="257.56"
       y2="172.82" /><linearGradient
       id="linearGradient5647"
       x1="219.64"
       xlink:href="#linearGradient4953"
       gradientUnits="userSpaceOnUse"
       y1="309.59"
       gradientTransform="translate(0.76458,-4.2593)"
       x2="223.34"
       y2="153.06" /><linearGradient
       id="linearGradient5657"
       x1="205.82"
       xlink:href="#linearGradient4953"
       gradientUnits="userSpaceOnUse"
       y1="17.378"
       gradientTransform="translate(0.76458,-4.2593)"
       x2="262.49"
       y2="145.21" /><linearGradient
       id="linearGradient5674"
       x1="86.251"
       xlink:href="#linearGradient4953"
       gradientUnits="userSpaceOnUse"
       y1="157.07"
       gradientTransform="translate(0.76458,-4.2593)"
       x2="252.64"
       y2="135.82" /><linearGradient
       id="linearGradient5678"
       x1="327.26"
       xlink:href="#linearGradient4953"
       gradientUnits="userSpaceOnUse"
       y1="248.97"
       gradientTransform="translate(0.76458,-4.2593)"
       x2="98.209"
       y2="77.992" /><linearGradient
       id="linearGradient5683"
       x1="74.293"
       xlink:href="#linearGradient4953"
       gradientUnits="userSpaceOnUse"
       y1="236.15"
       gradientTransform="translate(0.76458,-4.2593)"
       x2="345.46"
       y2="82.491" /><linearGradient
       id="linearGradient5689"
       x1="475.38"
       xlink:href="#linearGradient4953"
       gradientUnits="userSpaceOnUse"
       y1="56.419"
       gradientTransform="translate(0.76458,-4.2593)"
       x2="241.98"
       y2="153.56" /><linearGradient
       id="linearGradient5693"
       x1="-.69052"
       xlink:href="#linearGradient4953"
       gradientUnits="userSpaceOnUse"
       y1=".0035155"
       gradientTransform="translate(0.76458,-4.2593)"
       x2="253.14"
       y2="112.13" /><linearGradient
       id="linearGradient5771"
       x1="641.27"
       xlink:href="#linearGradient4953"
       gradientUnits="userSpaceOnUse"
       x2="527.19"
       y1="326.3"
       y2="124.08" /><linearGradient
       id="linearGradient5773"
       x1="470.03"
       xlink:href="#linearGradient4953"
       gradientUnits="userSpaceOnUse"
       x2="507.69"
       y1="233.51"
       y2="233.51" /><linearGradient
       id="linearGradient5775"
       x1="762.4"
       xlink:href="#linearGradient4953"
       gradientUnits="userSpaceOnUse"
       x2="591.68"
       y1="254.86"
       y2="83.551" /><linearGradient
       id="linearGradient5777"
       x1="542.59"
       xlink:href="#linearGradient4953"
       gradientUnits="userSpaceOnUse"
       x2="591.68"
       y1="140.51"
       y2="83.551" /><linearGradient
       id="linearGradient5781"
       x1="855.97"
       xlink:href="#linearGradient4953"
       gradientUnits="userSpaceOnUse"
       y1="367"
       gradientTransform="matrix(1.01,0,0,1.01,-6.8373,-1.7402)"
       x2="584.35"
       y2="97.817" /><linearGradient
       id="linearGradient5783"
       x1="507.18"
       xlink:href="#linearGradient4953"
       gradientUnits="userSpaceOnUse"
       x2="521.06"
       y1="319.16"
       y2="319.16" /><linearGradient
       id="linearGradient5785"
       x1="551.98"
       xlink:href="#linearGradient4953"
       gradientUnits="userSpaceOnUse"
       x2="591.68"
       y1="444.46"
       y2="83.551" /><linearGradient
       id="linearGradient5787"
       x1="755.59"
       xlink:href="#linearGradient4953"
       gradientUnits="userSpaceOnUse"
       x2="470.03"
       y1="273.76"
       y2="150.35" /><linearGradient
       id="linearGradient5789"
       x1="685.73"
       xlink:href="#linearGradient4953"
       gradientUnits="userSpaceOnUse"
       x2="615.25"
       y1="144.17"
       y2="68.207" /><linearGradient
       id="linearGradient5793"
       x1="622.85"
       xlink:href="#linearGradient4953"
       gradientUnits="userSpaceOnUse"
       y1="174.33"
       gradientTransform="matrix(1.01,0,0,1.01,-5.4576,-2.0492)"
       x2="648.54"
       y2="119.3" /><radialGradient
       id="radialGradient5797"
       xlink:href="#linearGradient4350"
       gradientUnits="userSpaceOnUse"
       cy="166.34"
       cx="198.76"
       gradientTransform="matrix(0.23691,0,0,0.26852,217.81,210.55)"
       r="15.65" /><radialGradient
       id="radialGradient5799"
       xlink:href="#linearGradient4350"
       gradientUnits="userSpaceOnUse"
       cy="166.34"
       cx="198.76"
       gradientTransform="matrix(0.23691,0,0,0.26852,269.32,197.41)"
       r="15.65" /><radialGradient
       id="radialGradient5801"
       xlink:href="#linearGradient4350"
       gradientUnits="userSpaceOnUse"
       cy="166.34"
       cx="198.76"
       gradientTransform="matrix(0.23691,0,0,0.26852,326.4,184.28)"
       r="15.65" /><radialGradient
       id="radialGradient5803"
       xlink:href="#linearGradient4350"
       gradientUnits="userSpaceOnUse"
       cy="52.591"
       cx="451.86"
       gradientTransform="matrix(1,0,0,1.2831,0,-10.887)"
       r="12.751" /><radialGradient
       id="radialGradient5805"
       xlink:href="#linearGradient4350"
       gradientUnits="userSpaceOnUse"
       cy="52.591"
       cx="400.34"
       gradientTransform="matrix(1,0,0,1.2831,0,-10.887)"
       r="12.751" /><radialGradient
       id="radialGradient5807"
       xlink:href="#linearGradient4350"
       gradientUnits="userSpaceOnUse"
       cy="145.02"
       cx="422.34"
       gradientTransform="matrix(1,0,0,1.2831,0,-37.05)"
       r="12.751" /><radialGradient
       id="radialGradient5809"
       xlink:href="#linearGradient4350"
       gradientUnits="userSpaceOnUse"
       cy="145.02"
       cx="473.86"
       gradientTransform="matrix(1,0,0,1.2831,0,-37.05)"
       r="12.751" /><radialGradient
       id="radialGradient5811"
       xlink:href="#linearGradient4350"
       gradientUnits="userSpaceOnUse"
       cy="96.634"
       cx="461.86"
       gradientTransform="matrix(1,0,0,1.2831,0,-23.354)"
       r="12.751" /><radialGradient
       id="radialGradient5813"
       xlink:href="#linearGradient4350"
       gradientUnits="userSpaceOnUse"
       cy="96.634"
       cx="410.34"
       gradientTransform="matrix(1,0,0,1.2831,0,-23.354)"
       r="12.751" /><radialGradient
       id="radialGradient5815"
       xlink:href="#linearGradient4350"
       gradientUnits="userSpaceOnUse"
       cy="63.923"
       cx="888.89"
       gradientTransform="matrix(1,0,0,1.4107,-4,-22.254)"
       r="13.476" /><radialGradient
       id="radialGradient5817"
       xlink:href="#linearGradient4350"
       gradientUnits="userSpaceOnUse"
       cy="156.84"
       cx="865.21"
       gradientTransform="matrix(1,0,0,1.4107,-4,-60.416)"
       r="13.476" /><radialGradient
       inkscape:collect="always"
       xlink:href="#linearGradient4350"
       id="radialGradient609"
       gradientUnits="userSpaceOnUse"
       gradientTransform="matrix(1,0,0,1.6446,0,-109.48)"
       cx="283.46"
       cy="169.84"
       r="11.024" /><radialGradient
       inkscape:collect="always"
       xlink:href="#linearGradient4350"
       id="radialGradient611"
       gradientUnits="userSpaceOnUse"
       gradientTransform="matrix(1,0,0,1.6446,0,-95.608)"
       cx="320.03"
       cy="148.32"
       r="11.024" /><radialGradient
       inkscape:collect="always"
       xlink:href="#linearGradient4350"
       id="radialGradient613"
       gradientUnits="userSpaceOnUse"
       gradientTransform="matrix(1,0,0,1.6446,0,-154.04)"
       cx="304.19"
       cy="238.98"
       r="11.024" /><radialGradient
       inkscape:collect="always"
       xlink:href="#linearGradient4350"
       id="radialGradient615"
       gradientUnits="userSpaceOnUse"
       gradientTransform="matrix(1,0,0,1.6446,0,-164.53)"
       cx="269.72"
       cy="255.25"
       r="11.024" /><radialGradient
       inkscape:collect="always"
       xlink:href="#linearGradient4350"
       id="radialGradient617"
       gradientUnits="userSpaceOnUse"
       gradientTransform="matrix(1,0,0,1.6446,0,-130.07)"
       cx="294.87"
       cy="201.78"
       r="11.024" /></defs><sodipodi:namedview
     id="base"
     bordercolor="#666666"
     inkscape:pageshadow="2"
     inkscape:window-y="-11"
     fit-margin-left="0"
     pagecolor="#ffffff"
     inkscape:window-height="1334"
     inkscape:window-maximized="1"
     inkscape:zoom="2.8820312"
     inkscape:window-x="-11"
     showgrid="false"
     borderopacity="1.0"
     inkscape:current-layer="layer1"
     inkscape:cx="203.6758"
     inkscape:cy="88.826242"
     fit-margin-top="0"
     fit-margin-right="0"
     fit-margin-bottom="0"
     inkscape:window-width="2560"
     inkscape:pageopacity="0.0"
     inkscape:document-units="px"
     inkscape:showpageshadow="2"
     inkscape:pagecheckerboard="0"
     inkscape:deskcolor="#d1d1d1" /><g
     id="layer1"
     inkscape:label="Calque 1"
     inkscape:groupmode="layer"
     transform="translate(-212.85945,-545.90979)"><path
       id="path3699"
       style="fill:#cccccc;stroke:#cccccc;stroke-width:2.90859;stroke-linecap:round;stroke-linejoin:round"
       d="m 252.45388,553.48307 130.95266,7.01547 c 14.05735,0 25.3342,8.48043 25.3342,19.05258 l -8.06379,59.8424 c 0,10.57228 -8.99238,18.24769 -23.04923,18.24769 l -28.61667,0.37573 6.73304,22.1826 -42.27118,-21.75366 -43.62574,0.91235 c -14.05738,0 -32.28972,-9.40151 -32.28972,-19.97354 l -12.76602,-63.32188 c 0,-10.57227 13.60607,-22.57999 27.66278,-22.57999 z"
       inkscape:export-ydpi="300"
       sodipodi:nodetypes="cccccccccccc"
       inkscape:connector-curvature="0"
       inkscape:export-xdpi="300" /><path
       id="path7728"
       style="fill:#ffffff;stroke:#000000;stroke-width:2.90859;stroke-linecap:round;stroke-linejoin:round"
       d="m 241.97617,547.36434 130.95267,7.01547 c 14.05737,0 25.33422,8.48043 25.33422,19.05258 l -8.0638,59.8424 c 0,10.57227 -8.99237,18.24768 -23.04924,18.24768 l -28.61667,0.37575 6.73306,22.18258 -42.27118,-21.75365 -43.62575,0.91236 c -14.05737,0 -32.28972,-9.40152 -32.28972,-19.97355 l -12.76601,-63.32188 c 0,-10.57228 13.60607,-22.57999 27.66276,-22.57999 z"
       inkscape:export-ydpi="300"
       sodipodi:nodetypes="cccccccccccc"
       inkscape:connector-curvature="0"
       inkscape:export-xdpi="300" /><g
       id="layer1-7"
       transform="matrix(0.23031249,0,0,0.23031249,243.68393,564.68091)"><g
         id="g5737"
         transform="matrix(0.91107,0,0,0.91107,28.655,11.719)"><g
           id="g5112"
           transform="translate(10.725,-10.697)"><g
             id="g3982"
             transform="translate(-56.232,5.9607)"><path
               id="path4067"
               opacity="0.1"
               style="color:#000000"
               d="m 340.49,164.78 -100.24,22.464 -3.5171,6.1071 1.7705,1.9778 80.449,69.143 15.954,4.116 h 120.22 l 100.24,-22.464 3.5171,-6.1071 -1.7705,-1.9778 -80.48,-69.143 -15.923,-4.1159 H 340.49 Z"
               transform="matrix(1,0,0,1.1211,0,-19.306)"
               filter="url(#filter3917-3)" /><g
               id="g4024"
               transform="translate(-191.39,-83.348)"><path
                 id="path4446"
                 style="color:#000000;fill:url(#linearGradient5771)"
                 fill="url(#linearGradient5771)"
                 d="M 641.27,326.3 755.59,273.767 H 635.38 L 521.06,326.3 Z" /><path
                 id="path4448"
                 style="color:#000000;fill:url(#linearGradient5773)"
                 fill="url(#linearGradient5773)"
                 d="m 470.55,154.98 37.146,161.68 -0.51912,-4.6352 -37.146,-161.68 z" /><path
                 id="path4450"
                 style="color:#000000;fill:url(#linearGradient5775)"
                 fill="url(#linearGradient5775)"
                 d="m 711.89,83.551 -120.21,3e-5 13.365,9.6306 h 120.21 z" /><path
                 id="path4452"
                 style="color:#000000;fill:url(#linearGradient5777)"
                 fill="url(#linearGradient5777)"
                 d="M 470.03,150.35 584.35,97.817 591.68,83.551 477.36,136.08 Z" /><path
                 id="path4454"
                 style="color:#000000"
                 fill="#b3b3b3"
                 d="m 762.92,259.5 -0.51912,-4.6353 -6.8099,18.901 z" /><path
                 id="path4456"
                 style="color:#000000;fill:url(#linearGradient5781)"
                 fill="url(#linearGradient5781)"
                 d="m 762.4,254.86 -37.14,-161.68 -121,-0.807 37.52,163.3 z" /><path
                 id="path4458"
                 style="color:#000000;fill:url(#linearGradient5783)"
                 fill="url(#linearGradient5783)"
                 d="m 507.18,312.03 0.51912,4.6352 13.365,9.6306 z" /><path
                 id="path4460"
                 style="color:#000000;fill:url(#linearGradient5785)"
                 fill="url(#linearGradient5785)"
                 d="m 584.35,97.817 20.694,-4.6352 -13.365,-9.6306 z" /><path
                 id="path4462"
                 style="color:#000000;fill:url(#linearGradient5787)"
                 fill="url(#linearGradient5787)"
                 d="m 635.38,273.76 h 120.21 l 6.8099,-18.901 h -120.21 z" /><path
                 id="path4464"
                 style="color:#000000;fill:url(#linearGradient5789)"
                 fill="url(#linearGradient5789)"
                 d="m 642.19,254.86 -37.146,-161.68 -20.694,4.6352 37.146,161.68 z" /><path
                 id="path4466"
                 style="color:#000000"
                 fill="#b3b3b3"
                 d="m 642.19,254.86 -20.694,4.6353 13.884,14.266 z" /><path
                 id="path4468"
                 style="color:#000000;fill:url(#linearGradient5793)"
                 fill="url(#linearGradient5793)"
                 d="M 622.26,260.04 584.74,96.75 469.27,149.8 506.788,313.1 Z" /><path
                 id="path4470"
                 style="color:#000000"
                 fill="#b3b3b3"
                 d="m 621.5,259.5 -114.32,52.533 13.884,14.266 114.32,-52.533 z" /></g></g><g
             id="g5068"
             stroke="#b3b3b3"
             stroke-width="0.23691"><path
               id="path4944"
               style="color:#000000;fill:url(#radialGradient5797)"
               fill="url(#radialGradient5797)"
               d="m 325.26,235.77 c -7.3147,3.3611 -7.0095,6.0859 0.68159,6.0859 7.69109,0 19.856,-2.7247 27.17,-6.0859 7.3147,-3.3611 7.0095,-6.0859 -0.68159,-6.0859 -7.69109,0 -19.856,2.7247 -27.17,6.0859" /><path
               id="path4244"
               style="color:#000000;fill:url(#radialGradient5799)"
               fill="url(#radialGradient5799)"
               d="m 376.78,222.64 c -7.3147,3.3611 -7.0095,6.0859 0.68159,6.0859 7.69109,0 19.856,-2.7247 27.17,-6.0859 7.3147,-3.3611 7.0095,-6.0859 -0.68159,-6.0859 -7.69109,0 -19.856,2.7247 -27.17,6.0859" /><path
               id="path4940"
               style="color:#000000;fill:url(#radialGradient5801)"
               fill="url(#radialGradient5801)"
               d="m 433.85,209.51 c -7.3147,3.3611 -7.0095,6.0859 0.68159,6.0859 7.69109,0 19.856,-2.7247 27.17,-6.0859 7.3147,-3.3611 7.0095,-6.0859 -0.68159,-6.0859 -7.69109,0 -19.856,2.7247 -27.17,6.0859" /></g><g
             id="g5036"
             stroke="#b3b3b3"
             stroke-width="0.14641"
             transform="translate(-1,-2.172)"><path
               id="path4613"
               style="color:#000000;fill:url(#radialGradient5803)"
               fill="url(#radialGradient5803)"
               d="m 439.75,52.591 c 2.0666,8.995 9.1634,16.287 15.851,16.287 6.6878,0 10.434,-7.2919 8.3673,-16.287 -2.0666,-8.995 -9.1634,-16.287 -15.851,-16.287 -6.6878,0 -10.434,7.2919 -8.3673,16.287" /><path
               id="path4617"
               style="color:#000000;fill:url(#radialGradient5805)"
               fill="url(#radialGradient5805)"
               d="m 388.23,52.591 c 2.0666,8.995 9.1634,16.287 15.851,16.287 6.6878,0 10.434,-7.2919 8.3673,-16.287 -2.0666,-8.995 -9.1634,-16.287 -15.851,-16.287 -6.6878,0 -10.434,7.2919 -8.3673,16.287" /><path
               id="path4621"
               style="color:#000000;fill:url(#radialGradient5807)"
               fill="url(#radialGradient5807)"
               d="m 410.23,145.02 c 2.0666,8.995 9.1634,16.287 15.851,16.287 6.6878,0 10.434,-7.2919 8.3673,-16.287 -2.0666,-8.995 -9.1634,-16.287 -15.851,-16.287 -6.6878,0 -10.434,7.2919 -8.3673,16.287" /><path
               id="path4625"
               style="color:#000000;fill:url(#radialGradient5809)"
               fill="url(#radialGradient5809)"
               d="m 461.75,145.02 c 2.0666,8.995 9.1634,16.287 15.851,16.287 6.6878,0 10.434,-7.2919 8.3673,-16.287 -2.0666,-8.995 -9.1634,-16.287 -15.851,-16.287 -6.6878,0 -10.434,7.2919 -8.3673,16.287" /><path
               id="path4629"
               style="color:#000000;fill:url(#radialGradient5811)"
               fill="url(#radialGradient5811)"
               d="m 449.75,96.634 c 2.0666,8.995 9.1634,16.287 15.851,16.287 6.6878,0 10.434,-7.2919 8.3673,-16.287 -2.0666,-8.995 -9.1634,-16.287 -15.851,-16.287 -6.6878,0 -10.434,7.2919 -8.3673,16.287" /><path
               id="path4633"
               style="color:#000000;fill:url(#radialGradient5813)"
               fill="url(#radialGradient5813)"
               d="m 398.23,96.634 c 2.0666,8.995 9.1634,16.287 15.851,16.287 6.6878,0 10.434,-7.2919 8.3673,-16.287 -2.0666,-8.995 -9.1634,-16.287 -15.851,-16.287 -6.6878,0 -10.434,7.2919 -8.3673,16.287" /></g></g><g
           id="g5232"
           transform="matrix(-1,0,0,1,1216.8,-4.2593)"><g
             id="g5626"
             stroke="#b3b3b3"
             stroke-width="0.22837"
             transform="translate(-2)"><path
               id="path5263"
               style="color:#000000;fill:url(#radialGradient5815)"
               fill="url(#radialGradient5815)"
               d="m 901.59,69.761 c -2.2798,9.9229 -9.816,15.353 -16.832,12.129 -7.0165,-3.2241 -10.856,-13.882 -8.5766,-23.805 2.2798,-9.9229 9.816,-15.353 16.832,-12.129 7.0165,3.2241 10.856,13.882 8.5766,23.805" /><path
               id="path5590"
               style="color:#000000;fill:url(#radialGradient5817)"
               fill="url(#radialGradient5817)"
               d="m 877.92,162.68 c -2.2798,9.9229 -9.816,15.353 -16.832,12.129 -7.0165,-3.2241 -10.856,-13.882 -8.5766,-23.805 2.2798,-9.9229 9.816,-15.353 16.832,-12.129 7.0165,3.2241 10.856,13.882 8.5766,23.805" /></g></g></g><g
         id="g5819"><path
           id="path4011"
           opacity="0.1"
           filter="url(#filter3917)"
           d="m 55.726,159.02 -10.13,3.6156 -59.821,26.489 47.24,73.336 9.0344,5.1984 9.4458,4.1277 162.21,32.339 10.13,-3.6156 59.821,-26.489 -47.24,-73.336 -9.0344,-5.1984 -9.4458,-4.1277 z" /><path
           id="path4891"
           stroke="#cccccc"
           fill="url(#linearGradient5693)"
           d="M 113.77,66.445 253.41,131.56 242.74,149.3 103.1,84.183 Z"
           style="fill:url(#linearGradient5693)" /><path
           id="path3928"
           fill="#ffffff"
           d="m 147.6,104.93 95.143,44.366 20.511,1.04 z" /><path
           id="path4879"
           stroke="#ececec"
           fill="url(#linearGradient5689)"
           d="m 356.07,97.01 -92.816,53.327 -9.8462,-18.778 92.816,-53.327 z"
           style="fill:url(#linearGradient5689)" /><path
           id="path4885"
           stroke="#f2f2f2"
           fill="#e6e6e6"
           d="m 214.69,297 28.047,-147.7 20.511,1.04 -28.047,147.7 z" /><path
           id="path4871"
           d="m 206.59,13.118 -92.816,53.327 -14.796,7.2873 92.816,-53.327 z"
           fill="#e6e6e6" /><path
           id="path4875"
           d="M 75.057,231.89 103.1,84.18 242.74,149.3 214.69,297 Z"
           fill="url(#linearGradient5683)"
           style="fill:url(#linearGradient5683)" /><path
           id="path4877"
           d="m 356.07,97.01 -9.8462,-18.778 5.715,8.3274 z"
           fill="#dbdbdb" /><path
           id="path4881"
           d="m 220.41,305.33 -139.64,-65.114 -5.7149,-8.3274 139.64,65.114 z"
           fill="#999999" /><path
           id="path4883"
           d="m 235.2,298.04 28.05,-147.7 92.82,-53.33 -28.05,147.7 z"
           fill="url(#linearGradient5678)"
           style="fill:url(#linearGradient5678)" /><path
           id="path4887"
           d="m 214.69,297 20.511,1.04 -14.796,7.2874 z"
           fill="#b3b3b3" /><path
           id="path4889"
           d="M 113.77,66.445 103.106,84.183 98.9747,73.732 Z"
           fill="url(#linearGradient5674)"
           style="fill:url(#linearGradient5674)" /><g
           id="g4482"
           stroke="#b3b3b3"
           transform="translate(0.76458,-4.2593)"><path
             id="path4130"
             style="color:#000000;fill:url(#radialGradient4474)"
             fill="url(#radialGradient4474)"
             d="m 140.52,186.92 c -1.7017,8.9618 -9.9494,13.024 -18.422,9.0734 -8.4723,-3.9507 -13.961,-14.418 -12.259,-23.38 1.7018,-8.9618 9.9495,-13.024 18.422,-9.0734 8.4724,3.9507 13.961,14.418 12.259,23.38" /><path
             id="path4132"
             style="color:#000000;fill:url(#radialGradient4472)"
             fill="url(#radialGradient4472)"
             d="m 149.41,143.33 c -1.7017,8.9618 -9.9494,13.024 -18.422,9.0734 -8.4723,-3.9507 -13.961,-14.418 -12.259,-23.38 1.7018,-8.9618 9.9495,-13.024 18.422,-9.0734 8.4724,3.9507 13.961,14.418 12.259,23.38" /><path
             id="path4947"
             style="color:#000000;fill:url(#radialGradient4470)"
             fill="url(#radialGradient4470)"
             d="m 132.85,230.52 c -1.7017,8.9618 -9.9494,13.024 -18.422,9.0734 -8.4723,-3.9508 -13.961,-14.418 -12.259,-23.38 1.7018,-8.9618 9.9495,-13.024 18.422,-9.0733 8.4724,3.9507 13.961,14.418 12.259,23.38" /><path
             id="path4134"
             style="color:#000000;fill:url(#radialGradient4480)"
             fill="url(#radialGradient4480)"
             d="m 205.21,217.09 c -1.7017,8.9619 -9.9494,13.024 -18.422,9.0734 -8.4723,-3.9507 -13.961,-14.418 -12.259,-23.38 1.7018,-8.9618 9.9495,-13.024 18.422,-9.0733 8.4724,3.9507 13.961,14.418 12.259,23.38" /><path
             id="path4136"
             style="color:#000000;fill:url(#radialGradient4478)"
             fill="url(#radialGradient4478)"
             d="m 214.1,173.49 c -1.7017,8.9618 -9.9494,13.024 -18.422,9.0733 -8.4723,-3.9507 -13.961,-14.418 -12.259,-23.38 1.7018,-8.9618 9.9495,-13.024 18.422,-9.0734 8.4724,3.9507 13.961,14.418 12.259,23.38" /><path
             id="path4138"
             style="color:#000000;fill:url(#radialGradient4476)"
             fill="url(#radialGradient4476)"
             d="m 197.54,260.68 c -1.7017,8.9618 -9.9494,13.024 -18.422,9.0734 -8.4723,-3.9508 -13.961,-14.418 -12.259,-23.38 1.7018,-8.9618 9.9495,-13.024 18.422,-9.0733 8.4724,3.9507 13.961,14.418 12.259,23.38" /></g><g
           id="g4521"
           stroke="#808080"
           transform="translate(2.7646,-2.2593)"><path
             id="path4168"
             style="color:#000000;fill:url(#radialGradient609)"
             fill="url(#radialGradient4528)"
             d="m 292.22,162.3 c 1.3175,-9.5305 -2.4319,-14.775 -8.3745,-11.715 -5.9426,3.0607 -11.828,13.268 -13.146,22.798 -1.3175,9.5305 2.4319,14.775 8.3745,11.715 5.9426,-3.0607 11.828,-13.268 13.146,-22.798" /><path
             id="path4170"
             style="color:#000000;fill:url(#radialGradient611)"
             fill="url(#radialGradient4530)"
             d="m 328.79,140.78 c 1.3175,-9.5305 -2.4319,-14.775 -8.3745,-11.715 -5.9426,3.0607 -11.828,13.268 -13.146,22.798 -1.3175,9.5305 2.4319,14.775 8.3745,11.715 5.9426,-3.0607 11.828,-13.268 13.146,-22.798" /><path
             id="path4172"
             style="color:#000000;fill:url(#radialGradient613)"
             fill="url(#radialGradient4532)"
             d="m 312.95,231.44 c 1.3175,-9.5305 -2.4319,-14.775 -8.3745,-11.715 -5.9426,3.0606 -11.828,13.268 -13.146,22.798 -1.3175,9.5305 2.4319,14.775 8.3745,11.715 5.9426,-3.0607 11.828,-13.268 13.146,-22.798" /><path
             id="path4174"
             style="color:#000000;fill:url(#radialGradient615)"
             fill="url(#radialGradient4534)"
             d="m 278.48,247.7 c 1.3175,-9.5305 -2.4319,-14.775 -8.3745,-11.715 -5.9426,3.0607 -11.828,13.268 -13.145,22.798 -1.3175,9.5305 2.4319,14.775 8.3745,11.715 5.9426,-3.0607 11.828,-13.268 13.146,-22.798" /><path
             id="path4176"
             style="color:#000000;fill:url(#radialGradient617)"
             fill="url(#radialGradient4536)"
             d="m 303.63,194.24 c 1.3175,-9.5305 -2.4319,-14.775 -8.3745,-11.715 -5.9426,3.0606 -11.828,13.268 -13.146,22.798 -1.3175,9.5305 2.4319,14.775 8.3745,11.715 5.9426,-3.0606 11.828,-13.268 13.145,-22.798" /></g><path
           id="path4873"
           stroke-linejoin="round"
           d="M 70.926,221.44 98.973,73.73 103.1,84.183 75.057,231.893 Z"
           stroke="#b3b3b3"
           stroke-linecap="round"
           stroke-width="0.5"
           fill="#b3b3b3" /><path
           id="path4893"
           stroke-linejoin="round"
           d="m 263.25,150.34 -20.511,-1.04 10.664,-17.738 z"
           stroke="#ffffff"
           stroke-linecap="round"
           fill="url(#linearGradient5657)"
           style="fill:url(#linearGradient5657)" /><path
           id="path4869"
           stroke-linejoin="round"
           d="M 206.59,13.118 346.22,78.232 253.41,131.56 113.77,66.445 Z"
           stroke="#f2f2f2"
           stroke-linecap="round"
           fill="#f9f9f9" /><g
           id="g4160"
           stroke="#999999"
           transform="translate(-82.153,-627.81)"><g
             id="g4376"
             stroke="#999999"
             transform="translate(2.7745,1.4486)"><path
               id="path4951"
               style="color:#000000;fill:url(#radialGradient4390)"
               fill="url(#radialGradient4390)"
               d="m 278.24,677.26 c -8.7197,-4.0661 -11.09,-10.062 -5.2939,-13.392 5.796,-3.33 17.563,-2.7334 26.283,1.3327 8.7197,4.0661 11.09,10.062 5.2939,13.392 -5.796,3.33 -17.563,2.7334 -26.283,-1.3327" /><path
               id="path4031"
               style="color:#000000;fill:url(#radialGradient4392)"
               fill="url(#radialGradient4392)"
               d="m 240.32,696.3 c -8.7197,-4.066 -11.09,-10.062 -5.2939,-13.392 5.796,-3.33 17.563,-2.7334 26.283,1.3327 8.7197,4.066 11.09,10.062 5.2939,13.392 -5.796,3.33 -17.563,2.7334 -26.283,-1.3327" /><path
               id="path4033"
               style="color:#000000;fill:url(#radialGradient4394)"
               fill="url(#radialGradient4394)"
               d="m 325.06,732.19 c -8.7197,-4.066 -11.09,-10.062 -5.2939,-13.392 5.796,-3.33 17.563,-2.7334 26.283,1.3327 8.7197,4.066 11.09,10.062 5.2939,13.392 -5.796,3.33 -17.563,2.7334 -26.283,-1.3327" /><path
               id="path4035"
               style="color:#000000;fill:url(#radialGradient4396)"
               fill="url(#radialGradient4396)"
               d="m 357.44,712.07 c -8.7197,-4.066 -11.09,-10.062 -5.2939,-13.392 5.796,-3.33 17.563,-2.7334 26.283,1.3327 8.7197,4.066 11.09,10.062 5.2939,13.392 -5.796,3.33 -17.563,2.7334 -26.283,-1.3327" /></g></g><path
           id="path3930"
           stroke="url(#linearGradient5647)"
           fill="url(#linearGradient5645)"
           d="m 263.25,150.34 -20.511,-1.04 -28.047,147.7 20.511,1.04 z"
           style="fill:url(#linearGradient5645);stroke:url(#linearGradient5647)" /><g
           id="g4186"
           stroke="#808080"
           transform="translate(2.7646,-2.2593)"><path
             id="path4188"
             style="color:#000000;fill:url(#radialGradient4528)"
             fill="url(#radialGradient4528)"
             d="m 292.22,162.3 c 1.3175,-9.5305 -2.4319,-14.775 -8.3745,-11.715 -5.9426,3.0607 -11.828,13.268 -13.146,22.798 -1.3175,9.5305 2.4319,14.775 8.3745,11.715 5.9426,-3.0607 11.828,-13.268 13.146,-22.798" /><path
             id="path4190"
             style="color:#000000;fill:url(#radialGradient4530)"
             fill="url(#radialGradient4530)"
             d="m 328.79,140.78 c 1.3175,-9.5305 -2.4319,-14.775 -8.3745,-11.715 -5.9426,3.0607 -11.828,13.268 -13.146,22.798 -1.3175,9.5305 2.4319,14.775 8.3745,11.715 5.9426,-3.0607 11.828,-13.268 13.146,-22.798" /><path
             id="path4192"
             style="color:#000000;fill:url(#radialGradient4532)"
             fill="url(#radialGradient4532)"
             d="m 312.95,231.44 c 1.3175,-9.5305 -2.4319,-14.775 -8.3745,-11.715 -5.9426,3.0606 -11.828,13.268 -13.146,22.798 -1.3175,9.5305 2.4319,14.775 8.3745,11.715 5.9426,-3.0607 11.828,-13.268 13.146,-22.798" /><path
             id="path4194"
             style="color:#000000;fill:url(#radialGradient4534)"
             fill="url(#radialGradient4534)"
             d="m 278.48,247.7 c 1.3175,-9.5305 -2.4319,-14.775 -8.3745,-11.715 -5.9426,3.0607 -11.828,13.268 -13.145,22.798 -1.3175,9.5305 2.4319,14.775 8.3745,11.715 5.9426,-3.0607 11.828,-13.268 13.146,-22.798" /><path
             id="path4196"
             style="color:#000000;fill:url(#radialGradient4536)"
             fill="url(#radialGradient4536)"
             d="m 303.63,194.24 c 1.3175,-9.5305 -2.4319,-14.775 -8.3745,-11.715 -5.9426,3.0606 -11.828,13.268 -13.146,22.798 -1.3175,9.5305 2.4319,14.775 8.3745,11.715 5.9426,-3.0606 11.828,-13.268 13.145,-22.798" /></g></g></g></g><metadata
     id="metadata6"><rdf:RDF><cc:Work><dc:format>image/svg+xml</dc:format><dc:type
           rdf:resource="http://purl.org/dc/dcmitype/StillImage" /><cc:license
           rdf:resource="http://creativecommons.org/publicdomain/zero/1.0/" /><dc:publisher><cc:Agent
             rdf:about="http://openclipart.org/"><dc:title>Openclipart</dc:title></cc:Agent></dc:publisher><dc:date>2011-03-21T20:11:43</dc:date><dc:description /><dc:source>https://openclipart.org/detail/128659/bulle--bubble-by-lmproulx-128659</dc:source><dc:creator><cc:Agent><dc:title>lmproulx</dc:title></cc:Agent></dc:creator><dc:subject><rdf:Bag><rdf:li>bubble</rdf:li><rdf:li>comic</rdf:li><rdf:li>line art</rdf:li><rdf:li>talk</rdf:li></rdf:Bag></dc:subject></cc:Work><cc:License
         rdf:about="http://creativecommons.org/publicdomain/zero/1.0/"><cc:permits
           rdf:resource="http://creativecommons.org/ns#Reproduction" /><cc:permits
           rdf:resource="http://creativecommons.org/ns#Distribution" /><cc:permits
           rdf:resource="http://creativecommons.org/ns#DerivativeWorks" /></cc:License></rdf:RDF></metadata><style
     type="text/css"
     id="style273">
	.st0{fill:#62BEE7;}
	.st1{fill:#474E5E;}
	.st2{fill:#F3EEE4;}
	.st3{fill:#FFFFFF;}
	.st4{fill:#E8DCCA;}
	.st5{opacity:0.1;fill:#231F20;}
	.st6{fill:#506268;}
	.st7{fill:#EB5151;}
	.st8{fill:#C64444;}
	.st9{fill:#9CCB5B;}
	.st10{fill:#404A4C;}
	.st11{fill:#676767;}
	.st12{fill:#E0E1E5;}
	.st13{fill:#9D9EA0;}
	.st14{fill:#B3B4B7;}
	.st15{opacity:0.1;}
	.st16{fill:#231F20;}
	.st17{fill:#FACC20;}
	.st18{fill:#FDEF34;}
	.st19{fill:#F7A90B;}
	.st20{fill:#20B8EA;}
	.st21{fill:#00A8EA;}
	.st22{fill:#33D3F4;}
	.st23{opacity:0.25;fill:#FFFFFF;}
	.st24{fill:#CACBCE;}
	.st25{fill:#2E3545;}
	.st26{fill:#8DAF4A;}
	.st27{fill:#F9C2AF;}
	.st28{fill:#AFDDF4;}
	.st29{fill:#677177;}
	.st30{fill:#FFEDB3;}
	.st31{fill:#695652;}
	.st32{fill:#30A7BF;}
	.st33{fill:#4D5556;}
	.st34{opacity:0.35;}
	.st35{fill:#FFCB04;}
	.st36{fill:#99E9FA;}
	.st37{opacity:0.2;}
	.st38{opacity:3.000000e-02;}
	.st39{fill:#9ECA5B;}
	.st40{fill:#98BA56;}
	.st41{fill:#40EEFF;}
	.st42{fill:#FF6A52;}
	.st43{opacity:0.1;fill:#FFFFFF;}
	.st44{opacity:0.4;}
	.st45{fill:#57606D;}
	.st46{fill:#BACA5B;}
	.st47{opacity:0.25;}
	.st48{opacity:5.000000e-02;fill:#231F20;}
	.st49{opacity:0.2;fill:#FFFFFF;}
	.st50{opacity:0.3;}
	.st51{fill:#FFD82F;}
	.st52{fill:#F4C121;}
	.st53{fill:#EF9D0A;}
	.st54{fill:#F9E532;}
	.st55{fill:#F4C01E;}
	.st56{fill:#FFE14D;}
	.st57{fill:#B7C156;}
	.st58{fill:#DBA92C;}
	.st59{fill:#363D4D;}
	.st60{fill:#3F4656;}
	.st61{fill:#463E33;}
	.st62{fill:none;}
	.st63{opacity:4.000000e-02;}
	.st64{fill:#4DB6AC;}
	.st65{fill:#CADE49;}
	.st66{fill:#9FD343;}
	.st67{fill:#AAD643;}
	.st68{fill:#82C736;}
	.st69{opacity:0.3;fill:#FFFFFF;}
	.st70{fill:#FFD640;}
	.st71{opacity:0.5;}
	.st72{opacity:0.6;}
</style></svg>
