<?xml version="1.0" encoding="UTF-8" standalone="no"?>
<!-- Created with Inkscape (http://www.inkscape.org/) -->

<svg
   id="svg3379"
   sodipodi:docname="bubble-ok.svg"
   viewBox="0 0 197.33558 135.74389"
   version="1.1"
   inkscape:version="1.2.2 (732a01da63, 2022-12-09)"
   width="197.33559"
   height="135.7439"
   xml:space="preserve"
   xmlns:inkscape="http://www.inkscape.org/namespaces/inkscape"
   xmlns:sodipodi="http://sodipodi.sourceforge.net/DTD/sodipodi-0.dtd"
   xmlns="http://www.w3.org/2000/svg"
   xmlns:svg="http://www.w3.org/2000/svg"
   xmlns:rdf="http://www.w3.org/1999/02/22-rdf-syntax-ns#"
   xmlns:cc="http://creativecommons.org/ns#"
   xmlns:dc="http://purl.org/dc/elements/1.1/"><defs
     id="defs9" /><sodipodi:namedview
     id="base"
     bordercolor="#666666"
     inkscape:pageshadow="2"
     inkscape:window-y="-11"
     fit-margin-left="0"
     pagecolor="#ffffff"
     inkscape:window-height="1334"
     inkscape:window-maximized="1"
     inkscape:zoom="4.0758076"
     inkscape:window-x="-11"
     showgrid="false"
     borderopacity="1.0"
     inkscape:current-layer="layer1"
     inkscape:cx="77.898672"
     inkscape:cy="74.586445"
     fit-margin-top="0"
     fit-margin-right="0"
     fit-margin-bottom="0"
     inkscape:window-width="2560"
     inkscape:pageopacity="0.0"
     inkscape:document-units="px"
     inkscape:showpageshadow="2"
     inkscape:pagecheckerboard="0"
     inkscape:deskcolor="#d1d1d1" /><g
     id="layer1"
     inkscape:label="Calque 1"
     inkscape:groupmode="layer"
     transform="translate(-212.85945,-545.90979)"><path
       id="path3699"
       style="fill:#cccccc;stroke:#cccccc;stroke-width:2.90859;stroke-linecap:round;stroke-linejoin:round"
       d="m 252.45388,553.48307 130.95266,7.01547 c 14.05735,0 25.3342,8.48043 25.3342,19.05258 l -8.06379,59.8424 c 0,10.57228 -8.99238,18.24769 -23.04923,18.24769 l -28.61667,0.37573 6.73304,22.1826 -42.27118,-21.75366 -43.62574,0.91235 c -14.05738,0 -32.28972,-9.40151 -32.28972,-19.97354 l -12.76602,-63.32188 c 0,-10.57227 13.60607,-22.57999 27.66278,-22.57999 z"
       inkscape:export-ydpi="300"
       sodipodi:nodetypes="cccccccccccc"
       inkscape:connector-curvature="0"
       inkscape:export-xdpi="300" /><path
       id="path7728"
       style="fill:#ffffff;stroke:#000000;stroke-width:2.90859;stroke-linecap:round;stroke-linejoin:round"
       d="m 241.97617,547.36434 130.95267,7.01547 c 14.05737,0 25.33422,8.48043 25.33422,19.05258 l -8.0638,59.8424 c 0,10.57227 -8.99237,18.24768 -23.04924,18.24768 l -28.61667,0.37575 6.73306,22.18258 -42.27118,-21.75365 -43.62575,0.91236 c -14.05737,0 -32.28972,-9.40152 -32.28972,-19.97355 l -12.76601,-63.32188 c 0,-10.57228 13.60607,-22.57999 27.66276,-22.57999 z"
       inkscape:export-ydpi="300"
       sodipodi:nodetypes="cccccccccccc"
       inkscape:connector-curvature="0"
       inkscape:export-xdpi="300" /><g
       id="g301"
       transform="translate(319.65045,568.03828)"><circle
         class="st7"
         cx="32"
         cy="32"
         r="32"
         id="circle275" /><g
         id="g299"><circle
           class="st17"
           cx="32"
           cy="32"
           r="24"
           id="circle277" /><path
           class="st18"
           d="m 44.8,21.9 -1.8,0.6 -1.4,4.1 -1.4,-4.1 -4.1,-1.4 4.1,-1.4 0.5,-1.5 c -2.5,-1.6 -5.6,-2.6 -8.8,-2.6 -9,0 -16.3,7.3 -16.3,16.3 0,9 7.4,16.4 16.4,16.4 9,0 16.3,-7.3 16.3,-16.3 0,-3.8 -1.4,-7.3 -3.5,-10.1 z"
           id="path279" /><path
           class="st5"
           d="m 37.8,34.3 c -0.2,-0.6 -1,-2.5 -5,-3.3 v -4.9 c 1,0.3 1.6,1 1.9,2 0.2,0.8 0.7,1.2 1.5,1.2 0.4,0 2.9,-0.7 0.4,-3.9 -0.4,-0.5 -1.2,-1.4 -3.7,-1.7 v -2 h -1.5 v 2 c -4.6,0.5 -5,3.5 -5,4.8 0,4 4,4.8 5,5.1 v 5.5 C 29.5,38.6 29.1,36.7 28.9,36 28.6,35.1 27.8,35 27.5,35 26.3,35.1 26,36.1 26,36.5 c 0,0.5 0.3,2.9 3.1,4.3 0.7,0.4 1.5,0.6 2.4,0.7 v 1.9 H 33 v -1.9 c 1.1,-0.1 2.1,-0.4 2.9,-0.9 2.1,-1.2 2.8,-3.8 1.9,-6.3 z m -6.5,-3.7 c -1.2,-0.6 -2.1,-0.8 -2.1,-2.3 0,-0.7 0.2,-1.8 2.1,-2.2 z m 1.5,8.7 v -5.2 c 2.4,0.8 2.5,1.8 2.5,2.5 0,0.7 -0.1,2.2 -2.5,2.7 z"
           id="path281" /><path
           class="st49"
           d="m 10.1,34.1 c 0,-13.3 10.7,-24 24,-24 6.1,0 11.7,2.3 15.9,6 C 45.6,11.1 39.2,8 32,8 18.7,8 8,18.7 8,32 c 0,7.2 3.1,13.6 8.1,18 -3.8,-4.3 -6,-9.8 -6,-15.9 z"
           id="path283" /><path
           class="st5"
           d="m 47.9,14 c 3.8,4.2 6,9.8 6,15.9 0,13.3 -10.7,24 -24,24 -6.1,0 -11.7,-2.3 -15.9,-6 4.4,5 10.8,8.1 18,8.1 13.3,0 24,-10.7 24,-24 0,-7.2 -3.1,-13.6 -8.1,-18 z"
           id="path285" /><g
           class="st50"
           id="g291"><path
             class="st3"
             d="M 45.9,12.5 12.5,45.9 c -0.3,-0.5 -0.7,-1 -1,-1.5 v 0 l 33,-33 v 0 c 0.5,0.4 0.9,0.7 1.4,1.1 z"
             id="path287" /><path
             class="st3"
             d="m 52.5,19.6 -33,33 c -1.6,-1 -3,-2.1 -4.4,-3.4 L 49,15.3 c 1.4,1.2 2.6,2.7 3.5,4.3 z"
             id="path289" /></g><path
           class="st19"
           d="m 37.8,33.6 c -0.2,-0.6 -1,-2.5 -5,-3.3 v -4.9 c 1,0.3 1.6,1 1.9,2 0.2,0.8 0.7,1.2 1.5,1.2 0.4,0 2.9,-0.7 0.4,-3.9 -0.4,-0.5 -1.2,-1.4 -3.7,-1.7 v -2 h -1.5 v 2 c -4.6,0.5 -5,3.5 -5,4.8 0,4 4,4.8 5,5.1 v 5.5 c -1.9,-0.5 -2.3,-2.4 -2.5,-3.1 -0.3,-0.9 -1.1,-1 -1.4,-1 -1.2,0.1 -1.5,1.1 -1.5,1.5 0,0.5 0.3,2.9 3.1,4.3 0.7,0.4 1.5,0.6 2.4,0.7 v 1.9 H 33 v -1.9 c 1.1,-0.1 2.1,-0.4 2.9,-0.9 2.1,-1.2 2.8,-3.8 1.9,-6.3 z m -6.5,-3.7 c -1.2,-0.6 -2.1,-0.8 -2.1,-2.3 0,-0.7 0.2,-1.8 2.1,-2.2 z m 1.5,8.7 v -5.2 c 2.4,0.8 2.5,1.8 2.5,2.5 0,0.7 -0.1,2.2 -2.5,2.7 z"
           id="path293" /><polygon
           class="st3"
           points="43,19.8 47.1,21.2 43,22.5 41.7,26.6 40.3,22.5 36.3,21.2 40.3,19.8 41.7,15.7 "
           id="polygon295" /><polygon
           class="st3"
           points="47.9,25.8 50.2,26.6 47.9,27.4 47.1,29.7 46.3,27.4 44,26.6 46.3,25.8 47.1,23.5 "
           id="polygon297" /></g></g><text
       xml:space="preserve"
       style="font-size:50.9797px;font-family:Calibri;-inkscape-font-specification:Calibri;fill:#ffffff;stroke:#000000;stroke-width:2.52633"
       x="267.89008"
       y="617.74567"
       id="text431"><tspan
         sodipodi:role="line"
         id="tspan429"
         x="267.89008"
         y="617.74567"
         style="font-style:normal;font-variant:normal;font-weight:normal;font-stretch:normal;font-size:50.9797px;font-family:'Comic Sans MS';-inkscape-font-specification:'Comic Sans MS';fill:#000000;stroke:none;stroke-width:2.52633">+1</tspan></text><g
       id="g6737"
       transform="matrix(0.72258646,0,0,0.72258646,66.069833,162.57789)"><path
         id="path3128"
         sodipodi:nodetypes="cccccssccscsccsssssscsssccssc"
         style="fill:#fbcaa9;fill-opacity:1;stroke:#000000;stroke-width:2.20061"
         d="m 232.02705,629.7715 c 0.70492,1.71648 0.64991,1.51842 1.26608,2.38399 -0.68072,1.30569 1.4678,3.5063 4.02491,4.08579 0.82376,0.59417 1.11424,0.39611 2.87252,1.10764 4.44302,1.10764 10.11178,0.49147 13.58801,0.40345 3.15493,-0.22006 6.3018,-1.203 7.67057,-1.73848 2.47935,-0.96827 4.03518,-1.9292 5.17509,-3.81439 1.98788,-3.2789 1.3035,-5.91962 -0.46212,-7.38669 1.96367,-1.95854 2.907,-5.15456 2.19913,-7.54221 2.79111,-1.97175 3.54738,-7.06175 3.05151,-11.5994 -0.25013,-2.29083 -1.34017,-3.89067 -2.04803,-4.8714 0.52154,-4.06599 -0.34623,-8.19432 -2.16466,-11.13213 -1.25288,-2.02309 -3.80045,-4.51638 -6.30914,-4.5802 -2.50869,-0.0631 -8.14591,1.70914 -8.88824,-2.03849 -0.74161,-3.74837 2.9114,-8.92126 3.76377,-14.35528 0.52447,-3.34126 -2.24462,-7.28768 -4.07332,-9.87265 -1.82431,-2.57765 -4.35647,-3.97642 -7.55322,-5.46491 -2.63192,-1.22552 -6.79913,-0.87907 -8.62564,1.75395 -1.95413,2.81751 -1.34603,7.3955 -0.61103,10.78444 0.66458,3.06324 1.91012,5.9497 2.34438,9.1061 0.42618,3.09699 1.37684,8.78262 0.60076,11.57299 -2.36565,2.205 -4.77311,2.23728 -7.42337,3.69921 -2.48889,1.37245 -3.78725,4.46283 -3.25617,7.20845 0.37704,1.94387 2.50136,3.24957 0.87364,5.26019 -1.94166,2.39939 -3.12266,6.02012 -0.66164,8.15691 2.46101,2.13678 2.0913,3.06177 2.45807,3.4036 0.3675,0.34183 0.44012,1.17586 -0.44159,3.49089 -1.42305,3.7381 -1.91892,4.04178 0.98074,6.68984 1.07683,0.98294 -1.11937,4.72397 1.64899,5.28879 z" /><path
         id="path8092"
         sodipodi:nodetypes="ccssccsccsccsccscscsccsscccssscsssssscssscsscscscsssssscsscccccccscsscccccsccssccccccsscssccccccc"
         style="fill:#fbcaa9;fill-opacity:1;stroke:#000000;stroke-width:2.20061"
         d="m 253.77857,637.75237 c -3.47623,0.088 -9.14499,0.70419 -13.58801,-0.40345 2.46174,0.15404 4.58386,-0.16138 5.7113,-0.27874 2.47715,-0.26407 5.21251,-0.96827 7.23193,-1.6798 2.28789,-0.81422 2.73462,-1.14431 4.19949,-2.00988 -0.18779,0.96093 -0.64478,1.95853 -1.36878,2.62605 2.48962,-0.68219 7.84589,-2.45001 9.30709,-4.59193 1.4216,-2.08324 1.54703,-4.32052 -0.7306,-6.15436 -0.82376,-0.6235 -1.07976,-1.89985 0.22813,-1.30569 0.42252,-0.54282 1.44653,-2.40673 1.69007,-3.68968 0.50907,-2.68401 -0.62204,-7.23486 -2.88133,-9.09877 1.459,0.57509 3.5041,2.77349 4.30072,4.00216 2.11331,-2.18006 2.73902,-5.9673 2.25048,-9.57556 -0.6345,-4.68583 -2.27322,-5.99885 -6.14335,-8.30949 2.30477,0.37997 3.38966,1.18026 4.33079,2.08764 0.31615,-3.07571 -0.81643,-6.30107 -2.25415,-8.99534 -1.04382,-1.95634 -3.02217,-3.93542 -5.17143,-5.28806 2.50869,0.0638 5.05626,2.55711 6.30914,4.5802 1.81843,2.93781 2.6862,7.06614 2.16466,11.13213 0.70786,0.98073 1.7979,2.58057 2.04803,4.8714 0.49587,4.53765 -0.2604,9.62765 -3.05151,11.5994 0.70787,2.38765 -0.23546,5.58367 -2.19913,7.54221 1.76562,1.46707 2.45,4.10779 0.46212,7.38669 -1.13991,1.88519 -2.69574,2.84612 -5.17509,3.81439 -1.36877,0.53548 -4.51564,1.51842 -7.67057,1.73848 z m -23.93966,-23.45039 c -0.36677,-0.34183 0.003,-1.26682 -2.45807,-3.4036 -2.46102,-2.13679 -1.28002,-5.75752 0.66164,-8.15691 1.62772,-2.01062 -0.4966,-3.31632 -0.87364,-5.26019 -0.53108,-2.74562 0.76728,-5.836 3.25617,-7.20845 2.65026,-1.46193 5.05772,-1.49421 7.42337,-3.69921 0.77608,-2.79037 -0.17458,-8.476 -0.60076,-11.57299 -0.43426,-3.1564 -1.6798,-6.04286 -2.34438,-9.1061 -0.735,-3.38894 -1.3431,-7.96693 0.61103,-10.78444 1.82651,-2.63302 5.99372,-2.97947 8.62564,-1.75395 3.19675,1.48849 5.72891,2.88726 7.55322,5.46491 1.8287,2.58497 4.59779,6.53139 4.07332,9.87265 -0.85237,5.43402 -4.50538,10.60691 -3.76377,14.35528 -1.78689,-3.04784 2.10818,-9.9482 2.44927,-14.10001 0.31689,-3.90241 -2.02822,-6.98032 -3.83565,-9.40906 -1.16119,-1.56023 -3.83639,-3.67354 -6.38616,-4.67717 -2.08618,-0.82097 -4.91029,-1.72329 -7.20478,0.85934 -2.08911,2.21432 -1.4238,7.19796 -0.74161,9.82644 0.94626,3.64493 2.0693,7.16444 2.59452,11.50623 0.33889,2.7999 0.47899,6.5534 0.19218,9.51909 1.18466,0.52741 5.18756,-1.14725 7.48573,-1.63505 3.12559,-0.66385 6.93044,-2.20941 10.05677,-0.27655 -4.51931,-0.3785 -7.93539,0.68879 -11.90381,1.83091 -2.95835,0.85237 -5.86022,1.95854 -8.77528,2.90113 -2.23435,0.92645 -4.81933,1.80596 -6.39276,3.58258 -1.41353,1.59618 -1.96074,3.34272 -0.0998,5.15969 2.48228,2.42287 -0.4592,5.25505 -1.91526,7.17691 -1.95634,2.58278 1.37757,4.62861 2.76029,6.4375 1.51035,1.97468 0.37337,5.26092 -0.61324,7.55908 -1.02255,2.38106 0.75408,2.38766 2.21088,5.1949 0.8399,1.61378 -0.80762,3.68235 0.14304,5.26678 -2.76836,-0.56482 -0.57216,-4.30585 -1.64899,-5.28879 -2.89966,-2.64806 -2.40379,-2.95174 -0.98074,-6.68984 0.88171,-2.31503 0.80909,-3.14906 0.44159,-3.49089 z m 7.47913,21.9393 c -1.52576,-0.2714 -4.75625,-2.20794 -4.02491,-4.08579 0.61617,1.26168 4.44522,1.92186 4.02491,4.08579 z m 9.94673,-10.03476 c -1.37464,-0.27141 -5.15528,-3.17621 -3.26496,-3.51363 2.78376,0.76287 5.85141,2.25195 8.87211,1.45973 3.01629,-0.78488 6.6935,-1.44506 9.47727,-0.20539 -2.94001,0.39611 -4.94769,1.10764 -7.78868,1.63579 -2.29523,0.43278 -4.90074,1.1003 -7.29574,0.6235 z m 15.15117,-6.62235 c 0.88831,-2.24389 -1.6886,-6.32748 -0.29928,-7.01407 0.68365,2.18961 3.56278,4.46503 1.38418,6.42871 -0.1137,0.29341 -0.72253,1.36217 -1.0849,0.58536 z m -21.38181,-7.11016 c -2.89674,-2.27616 -2.14486,-2.85125 -0.42546,-2.43314 1.82797,0.44526 6.33188,0.67852 7.63977,0.36897 2.92974,-0.69246 8.90732,-1.93947 11.34633,0.26774 -2.56371,-0.42325 -7.41458,0.81056 -10.60986,1.3321 -1.78322,0.29048 -6.53286,1.57784 -7.95078,0.46433 z m 19.91254,-4.33153 c 2.51163,-1.67906 -0.13424,-7.23999 2.25049,-7.9075 0.90738,2.52996 1.62404,7.76887 -2.09131,8.08355 z m -21.4471,-8.13197 c -2.64586,-1.13771 -2.58424,-2.61505 0.83843,-2.29743 4.23176,0.39391 8.69679,-0.65505 12.7327,-1.17219 2.62166,-0.33596 7.15051,-0.8641 8.96454,0.25527 -3.2613,0.57803 -6.67444,0.64038 -9.7861,1.59838 -3.60092,1.10837 -12.19942,1.85291 -12.74957,1.61597 z m 20.38274,-13.39288 c 1.62258,1.54336 3.63467,4.14521 1.89766,6.4111 0.23106,-2.48962 -2.14633,-4.26038 -1.89766,-6.4111 z M 240.87495,576.4787 c 1.13991,-2.74122 5.92109,-1.50007 8.74154,-1.60277 2.25929,2.10891 -1.97615,1.09884 -3.21876,1.35044 -1.66439,-0.32862 -4.34692,2.07224 -5.52278,0.25233 z" /></g></g><metadata
     id="metadata6"><rdf:RDF><cc:Work><dc:format>image/svg+xml</dc:format><dc:type
           rdf:resource="http://purl.org/dc/dcmitype/StillImage" /><cc:license
           rdf:resource="http://creativecommons.org/publicdomain/zero/1.0/" /><dc:publisher><cc:Agent
             rdf:about="http://openclipart.org/"><dc:title>Openclipart</dc:title></cc:Agent></dc:publisher><dc:date>2011-03-21T20:11:43</dc:date><dc:description /><dc:source>https://openclipart.org/detail/128659/bulle--bubble-by-lmproulx-128659</dc:source><dc:creator><cc:Agent><dc:title>lmproulx</dc:title></cc:Agent></dc:creator><dc:subject><rdf:Bag><rdf:li>bubble</rdf:li><rdf:li>comic</rdf:li><rdf:li>line art</rdf:li><rdf:li>talk</rdf:li></rdf:Bag></dc:subject></cc:Work><cc:License
         rdf:about="http://creativecommons.org/publicdomain/zero/1.0/"><cc:permits
           rdf:resource="http://creativecommons.org/ns#Reproduction" /><cc:permits
           rdf:resource="http://creativecommons.org/ns#Distribution" /><cc:permits
           rdf:resource="http://creativecommons.org/ns#DerivativeWorks" /></cc:License></rdf:RDF></metadata><style
     type="text/css"
     id="style273">
	.st0{fill:#62BEE7;}
	.st1{fill:#474E5E;}
	.st2{fill:#F3EEE4;}
	.st3{fill:#FFFFFF;}
	.st4{fill:#E8DCCA;}
	.st5{opacity:0.1;fill:#231F20;}
	.st6{fill:#506268;}
	.st7{fill:#EB5151;}
	.st8{fill:#C64444;}
	.st9{fill:#9CCB5B;}
	.st10{fill:#404A4C;}
	.st11{fill:#676767;}
	.st12{fill:#E0E1E5;}
	.st13{fill:#9D9EA0;}
	.st14{fill:#B3B4B7;}
	.st15{opacity:0.1;}
	.st16{fill:#231F20;}
	.st17{fill:#FACC20;}
	.st18{fill:#FDEF34;}
	.st19{fill:#F7A90B;}
	.st20{fill:#20B8EA;}
	.st21{fill:#00A8EA;}
	.st22{fill:#33D3F4;}
	.st23{opacity:0.25;fill:#FFFFFF;}
	.st24{fill:#CACBCE;}
	.st25{fill:#2E3545;}
	.st26{fill:#8DAF4A;}
	.st27{fill:#F9C2AF;}
	.st28{fill:#AFDDF4;}
	.st29{fill:#677177;}
	.st30{fill:#FFEDB3;}
	.st31{fill:#695652;}
	.st32{fill:#30A7BF;}
	.st33{fill:#4D5556;}
	.st34{opacity:0.35;}
	.st35{fill:#FFCB04;}
	.st36{fill:#99E9FA;}
	.st37{opacity:0.2;}
	.st38{opacity:3.000000e-02;}
	.st39{fill:#9ECA5B;}
	.st40{fill:#98BA56;}
	.st41{fill:#40EEFF;}
	.st42{fill:#FF6A52;}
	.st43{opacity:0.1;fill:#FFFFFF;}
	.st44{opacity:0.4;}
	.st45{fill:#57606D;}
	.st46{fill:#BACA5B;}
	.st47{opacity:0.25;}
	.st48{opacity:5.000000e-02;fill:#231F20;}
	.st49{opacity:0.2;fill:#FFFFFF;}
	.st50{opacity:0.3;}
	.st51{fill:#FFD82F;}
	.st52{fill:#F4C121;}
	.st53{fill:#EF9D0A;}
	.st54{fill:#F9E532;}
	.st55{fill:#F4C01E;}
	.st56{fill:#FFE14D;}
	.st57{fill:#B7C156;}
	.st58{fill:#DBA92C;}
	.st59{fill:#363D4D;}
	.st60{fill:#3F4656;}
	.st61{fill:#463E33;}
	.st62{fill:none;}
	.st63{opacity:4.000000e-02;}
	.st64{fill:#4DB6AC;}
	.st65{fill:#CADE49;}
	.st66{fill:#9FD343;}
	.st67{fill:#AAD643;}
	.st68{fill:#82C736;}
	.st69{opacity:0.3;fill:#FFFFFF;}
	.st70{fill:#FFD640;}
	.st71{opacity:0.5;}
	.st72{opacity:0.6;}
</style></svg>
